# AST/ASF file generated using VICON BodyLanguage
# -----------------------------------------------
:version 1.10
:name VICON
:units
  mass 1.0
  length 0.45
  angle deg
:documentation
   .ast/.asf automatically generated from VICON data using
   VICON BodyBuilder and BodyLanguage model FoxedUp or BRILLIANT.MOD
:root
   order TX TY TZ RX RY RZ
   axis XYZ
   position 0 0 0  
   orientation 0 0 0 
:bonedata
  begin
     id 1 
     name lhipjoint
     direction 0.610259 -0.730986 0.305356 
     length 2.50941 
     axis 0 0 0  XYZ
  end
  begin
     id 2 
     name lfemur
     direction 0.34202 -0.939693 0  
     length 7.48822  
     axis 0 0 20  XYZ
    dof rx ry rz
    limits (-160.0 20.0)
           (-70.0 70.0)
           (-60.0 70.0)
  end
  begin
     id 3 
     name ltibia
     direction 0.34202 -0.939693 0   
     length 7.60141   
     axis 0 0 20   XYZ
    dof rx
    limits (-10.0 170.0)
  end
  begin
     id 4 
     name lfoot
     direction 0.0673488 -0.185039 0.980421   
     length 2.04049   
     axis -90 7.62852e-016 20   XYZ
    dof rx rz
    limits (-45.0 90.0)
           (-70.0 20.0)
  end
  begin
     id 5 
     name ltoes
     direction 1.5356e-011 -4.21729e-011 1   
     length 1.02897   
     axis -90 7.62852e-016 20   XYZ
    dof rx
    limits (-90.0 20.0)
  end
  begin
     id 6 
     name rhipjoint
     direction -0.57612 -0.754205 0.315056   
     length 2.43216  
     axis 0 0 0  XYZ 
  end
  begin
     id 7 
     name rfemur
     direction -0.34202 -0.939693 0   
     length 7.42799   
     axis 0 0 -20   XYZ
    dof rx ry rz
    limits (-160.0 20.0)
           (-70.0 70.0)
           (-70.0 60.0)
  end
  begin
     id 8 
     name rtibia
     direction -0.34202 -0.939693 0   
     length 7.69484   
     axis 0 0 -20   XYZ
    dof rx
    limits (-10.0 170.0)
 end
 begin
     id 9 
     name rfoot
     direction -0.111837 -0.30727 0.945028   
     length 2.15769  
     axis -90 -7.62852e-016 -20   XYZ
    dof rx rz
    limits (-45.0 90.0)
           (-20.0 70.0)
  end
  begin
     id 10 
     name rtoes
     direction -1.53539e-011 -4.21878e-011 1   
     length 1.07391   
     axis -90 -7.62852e-016 -20   XYZ
    dof rx
    limits (-90.0 20.0)
  end
  begin
     id 11 
     name lowerback
     direction 0.00552624 0.990109 -0.140195   
     length 2.12403   
     axis 0 0 0   XYZ
    dof rx ry rz
    limits (-20.0 45.0)
           (-30.0 30.0)
           (-30.0 30.0)
  end
  begin
     id 12 
     name upperback
     direction 0.00361898 0.999976 -0.00584723   
     length 2.13232   
     axis 0 0 0   XYZ
    dof rx ry rz
    limits (-20.0 45.0)
           (-30.0 30.0)
           (-30.0 30.0)
  end
  begin
     id 13 
     name thorax
     direction -0.000331275 0.998253 0.0590847   
     length 2.17688   
     axis 0 0 0   XYZ
    dof rx ry rz
    limits (-20.0 45.0)
           (-30.0 30.0)
           (-30.0 30.0)
  end
  begin
     id 14 
     name lowerneck
     direction -0.0561561 0.979832 0.19177   
     length 1.64159   
     axis 0 0 0   XYZ
    dof rx ry rz
    limits (-20.0 45.0)
           (-30.0 30.0)
           (-30.0 30.0)
  end
  begin
     id 15 
     name upperneck
     direction 0.0827153 0.979385 -0.184293   
     length 1.68939   
     axis 0 0 0   XYZ
    dof rx ry rz
    limits (-20.0 45.0)
           (-30.0 30.0)
           (-30.0 30.0)
  end
  begin
     id 16
     name head
     direction 0.0278583 0.995936 -0.0856488  
     length 1.70207  
     axis 0 0 0   XYZ
    dof rx ry rz
    limits (-20.0 45.0)
           (-30.0 30.0)
           (-30.0 30.0)
  end
  begin
     id 17 
     name lclavicle
     direction 0.950993 0.301131 -0.0702275  
     length 3.41652  
     axis 0 0 0   XYZ
    dof ry rz
    limits (-20.0 10.0)
           (0.0 20.0)
  end
  begin
     id 18 
     name lhumerus
     direction 1 -4.48981e-011 -3.9662e-029   
     length 5.32955   
     axis 180 -30 -90   XYZ
    dof rx ry rz
    limits (-60.0 90.0)
           (-90.0 90.0)
           (-90.0 90.0)
  end
  begin
     id 19
     name lradius
     direction 1 -4.48925e-011 -9.0549e-027   
     length 3.69232   
     axis 180 -30 -90   XYZ
    dof rx
    limits (-10.0 170.0)
  end
  begin
     id 20
     name lwrist
     direction 1 -4.49007e-011 -1.49005e-026   
     length 1.84616   
     axis 9.0955e-015 90 90   XYZ
    dof ry
    limits (-180.0 0.0)
 end
  begin
     id 21 
     name lhand
     direction 1 -4.49016e-011 -2.98023e-026   
     length 0.536598   
     axis 1.90115e-014 90 90   XYZ
    dof rx rz
    limits (-90.0 90.0)
           (-45.0 45.0)
  end
  begin
     id 22 
     name lfingers
     direction 1 -4.48924e-011 -5.9578e-026   
     length 0.432619   
     axis 3.80223e-014 90 90   XYZ
    dof rx
    limits (0.0 90.0)
  end
  begin
     id 23
     name lthumb
     direction 0.707107 -6.34947e-011 0.707107   
     length 0.621157   
     axis -90 45 -3.84942e-014   XYZ
    dof rx rz
    limits (-45.0 45.0)
           (-45.0 45.0)
  end
  begin
     id 24 
     name rclavicle
     direction -0.955495 0.276497 -0.102848   
     length 3.36357  
     axis 0 0 0   XYZ 
    dof ry rz
    limits (-10.0 20.0)
           (-20.0 0.0)
  end
  begin
     id 25 
     name rhumerus
     direction -1 -4.48961e-011 3.30983e-027  
     length 5.23431   
     axis 180 30 90   XYZ
    dof rx ry rz
    limits (-90.0 60.0)
           (-90.0 90.0)
           (-90.0 90.0)
  end
  begin
     id 26 
     name rradius
     direction -1 -4.48965e-011 -6.63263e-027   
     length 3.55301   
     axis 180 30 90   XYZ
    dof rx
    limits (-10.0 170.0)
  end
  begin
     id 27 
     name rwrist
     direction -1 -4.48942e-011 -1.48958e-026   
     length 1.77651   
     axis 9.0955e-015 -90 -90   XYZ
    dof ry
    limits (-180.0 0.0)
  end
  begin
     id 28
     name rhand
     direction -1 -4.48977e-011 -2.97966e-026   
     length 0.772522   
     axis 1.90115e-014 -90 -90   XYZ
    dof rx rz
    limits (-90.0 90.0)
           (-45.0 45.0)
  end
  begin
     id 29
     name rfingers
     direction -1 -4.49135e-011 -5.96389e-026   
     length 0.622827   
     axis 3.80223e-014 -90 -90   XYZ
    dof rx
    limits (0.0 90.0)
  end
  begin
     id 30
     name rthumb
     direction -0.707107 -6.34969e-011 0.707107   
     length 0.894259   
     axis -90 -45 3.84942e-014   XYZ
    dof rx rz
    limits (-45.0 45.0)
           (-45.0 45.0)
  end
:hierarchy
  begin
    root lhipjoint rhipjoint lowerback
    lhipjoint lfemur
    lfemur ltibia
    ltibia lfoot
    lfoot ltoes
    rhipjoint rfemur
    rfemur rtibia
    rtibia rfoot
    rfoot rtoes
    lowerback upperback
    upperback thorax
    thorax lowerneck lclavicle rclavicle
    lowerneck upperneck
    upperneck head
    lclavicle lhumerus
    lhumerus lradius
    lradius lwrist
    lwrist lhand lthumb
    lhand lfingers
    rclavicle rhumerus
    rhumerus rradius
    rradius rwrist
    rwrist rhand rthumb
    rhand rfingers
  end

#!OML:ASF F:\VICON\USERDATA\INSTALL\rory3\rory3.ASF
:FULLY-SPECIFIED
:DEGREES
298
root -5.674 17.7926 3.22809 2.63968 47.7083 7.08872
lowerback 11.5486 1.1033 -3.84127
upperback 0.906826 1.05094 1.04149
thorax -5.61932 0.631399 3.09239
lowerneck -20.9642 0.232123 -9.756
upperneck 34.108 3.0224 4.39507
head 15.2622 0.790259 4.1728
rclavicle -7.03698e-014 5.56597e-015
rhumerus -34.8732 -17.5012 -75.1535
rradius 32.111
rwrist 9.73319
rhand -13.6866 9.84601
rfingers 7.12502
rthumb 12.4313 -19.7643
lclavicle -7.03698e-014 5.56597e-015
lhumerus -29.9108 4.9976 81.6944
lradius 33.1581
lwrist -2.50112
lhand -18.1081 26.3781
lfingers 7.12502
lthumb 8.16597 56.2003
rfemur -14.8979 2.33258 11.0567
rtibia 54.7516
rfoot -18.407 8.90924
rtoes -15.9014
lfemur -2.93804 -3.78122 -24.2696
ltibia 20.6212
lfoot -11.5138 -8.6849
ltoes -5.709
299
root -5.63708 17.7872 3.19631 2.50527 47.9503 6.93985
lowerback 11.5625 1.04741 -3.83304
upperback 0.874987 0.976252 1.03509
thorax -5.65421 0.595527 3.09307
lowerneck -20.8634 0.22445 -9.70554
upperneck 34.0933 2.97195 4.41659
head 15.2365 0.780412 4.16101
rclavicle -1.18426e-013 0
rhumerus -35.0014 -17.543 -75.3419
rradius 32.0194
rwrist 9.78116
rhand -13.7347 10.0216
rfingers 7.12502
rthumb 12.3849 -19.5916
lclavicle -1.18426e-013 0
lhumerus -29.9253 5.13944 81.5442
lradius 33.2368
lwrist -2.18041
lhand -17.8906 26.1661
lfingers 7.12502
lthumb 8.37589 55.98
rfemur -15.0071 1.27684 12.0736
rtibia 55.2452
rfoot -18.6767 9.03128
rtoes -17.1204
lfemur -3.17912 -3.46785 -24.2603
ltibia 21.1155
lfoot -11.693 -9.25081
ltoes -4.52567
300
root -5.59936 17.7791 3.16414 2.48236 48.1316 6.89459
lowerback 11.5447 1.01361 -3.90154
upperback 0.816507 0.918395 0.97791
thorax -5.70142 0.569711 3.08104
lowerneck -20.7073 0.270981 -9.56629
upperneck 34.055 2.95738 4.44701
head 15.1834 0.800247 4.14126
rclavicle 3.03644e-014 3.97569e-015
rhumerus -35.1898 -17.4662 -75.6034
rradius 32.0183
rwrist 9.63267
rhand -13.9236 9.99704
rfingers 7.12502
rthumb 12.2028 -19.627
lclavicle 3.03644e-014 3.97569e-015
lhumerus -30.0117 5.07223 81.3411
lradius 33.3497
lwrist -1.79304
lhand -17.6072 25.8228
lfingers 7.12502
lthumb 8.64939 55.6256
rfemur -15.1598 0.142615 12.9687
rtibia 55.6777
rfoot -18.8791 9.09817
rtoes -19.668
lfemur -3.4558 -3.33459 -24.3638
ltibia 21.6458
lfoot -11.9422 -9.51063
ltoes -4.71939
301
root -5.55991 17.7706 3.13272 2.46453 48.3143 6.88517
lowerback 11.4813 0.993417 -3.98149
upperback 0.808236 0.879985 0.918296
thorax -5.67175 0.551544 3.07013
lowerneck -20.6775 0.285007 -9.53314
upperneck 34.0689 2.90296 4.60852
head 15.1825 0.805416 4.19472
rclavicle -2.57923e-014 1.59028e-015
rhumerus -35.3082 -17.5379 -75.8004
rradius 32.0268
rwrist 9.49169
rhand -13.7064 9.84747
rfingers 7.12502
rthumb 12.4122 -19.764
lclavicle -2.57923e-014 1.59028e-015
lhumerus -29.959 4.89258 81.18
lradius 33.414
lwrist -1.43693
lhand -17.5912 26.1848
lfingers 7.12502
lthumb 8.66481 55.9869
rfemur -15.2315 -1.15407 13.7818
rtibia 56.0279
rfoot -19.0351 9.18373
rtoes -22.5128
lfemur -3.6785 -3.39711 -24.5081
ltibia 22.1668
lfoot -12.137 -9.63277
ltoes -4.81887
302
root -5.52173 17.7589 3.10302 2.36872 48.5253 6.87095
lowerback 11.4791 0.964508 -4.03409
upperback 0.829069 0.83224 0.862674
thorax -5.64441 0.527902 3.04912
lowerneck -20.6939 0.275993 -9.50818
upperneck 34.1425 2.83701 4.74045
head 15.223 0.797924 4.23974
rclavicle 8.83598e-014 -1.98785e-014
rhumerus -35.3824 -17.6174 -75.9908
rradius 31.9613
rwrist 9.49654
rhand -13.7729 9.86062
rfingers 7.12502
rthumb 12.3481 -19.7547
lclavicle 8.83598e-014 -1.98785e-014
lhumerus -29.8103 4.73082 81.0483
lradius 33.3725
lwrist -1.23347
lhand -17.7967 26.5953
lfingers 7.12502
lthumb 8.46652 56.4056
rfemur -15.1323 -2.34722 14.5722
rtibia 56.2652
rfoot -19.1078 9.3018
rtoes -24.3947
lfemur -3.81558 -3.28921 -24.6255
ltibia 22.63
lfoot -12.2564 -9.9763
ltoes -4.60479
303
root -5.48425 17.7514 3.07448 2.32756 48.7296 6.91997
lowerback 11.4801 0.957311 -4.10554
upperback 0.831802 0.809595 0.794457
thorax -5.64016 0.517606 3.0213
lowerneck -20.5444 0.223986 -9.51015
upperneck 34.0751 2.711 4.82322
head 15.1665 0.760135 4.24564
rclavicle 2.75317e-014 -1.66979e-014
rhumerus -35.5158 -17.6109 -76.1821
rradius 31.9398
rwrist 9.48728
rhand -14.0936 9.79956
rfingers 7.12502
rthumb 12.0389 -19.8342
lclavicle 2.75317e-014 -1.66979e-014
lhumerus -29.6801 4.63794 80.9678
lradius 33.3009
lwrist -1.20509
lhand -17.7993 26.3814
lfingers 7.12502
lthumb 8.46404 56.1918
rfemur -14.983 -3.27428 15.2943
rtibia 56.3973
rfoot -18.8878 9.47193
rtoes -25.5176
lfemur -3.94087 -3.12828 -24.7858
ltibia 23.0483
lfoot -12.3871 -10.3741
ltoes -4.30902
